<?xml version="1.0" standalone="no"?>
<!DOCTYPE svg PUBLIC "-//W3C//DTD SVG 20010904//EN"
 "http://www.w3.org/TR/2001/REC-SVG-20010904/DTD/svg10.dtd">
<svg version="1.0" xmlns="http://www.w3.org/2000/svg"
 width="158.000000pt" height="142.000000pt" viewBox="0 0 158.000000 142.000000"
 preserveAspectRatio="xMidYMid meet">

<g transform="translate(0.000000,142.000000) scale(0.100000,-0.100000)"
fill="#000000" stroke="none">
<path d="M550 1260 c-27 -29 -31 -30 -118 -30 -60 0 -93 -4 -100 -12 -5 -7
-40 -139 -77 -293 -37 -154 -92 -381 -122 -505 -29 -124 -52 -236 -51 -250 l3
-25 128 -3 c107 -2 128 0 132 13 3 8 7 22 10 30 6 21 33 8 37 -18 3 -22 5 -22
223 -22 l219 0 6 25 c3 14 11 25 18 25 7 0 18 -11 25 -25 12 -24 16 -25 134
-28 108 -2 123 -1 131 15 6 10 42 151 81 313 39 162 89 369 111 460 55 223 64
266 57 284 -5 13 -25 16 -102 16 -95 0 -97 1 -122 30 -19 23 -33 30 -62 30
-40 0 -81 -23 -81 -46 0 -12 -27 -14 -159 -14 l-159 0 -30 30 c-23 22 -40 30
-67 30 -28 0 -44 -7 -65 -30z m83 -65 c-2 -18 -207 -875 -219 -917 -5 -18 -29
-24 -38 -10 -3 5 6 51 18 103 26 102 82 335 146 604 60 251 59 247 78 243 10
-2 16 -12 15 -23z m491 16 c5 -7 -36 -184 -196 -846 -24 -100 -30 -111 -51
-99 -15 10 -23 -28 149 682 63 258 77 297 98 263z m-614 -61 c0 -5 -49 -215
-110 -467 -60 -251 -110 -461 -110 -465 0 -4 -29 -8 -65 -8 -49 0 -65 3 -65
14 0 8 47 207 104 443 57 235 107 443 111 461 l7 32 64 0 c35 0 64 -4 64 -10z
m495 -2 c-5 -15 -225 -927 -225 -934 0 -2 -70 -4 -155 -4 -85 0 -155 2 -155 4
0 3 23 98 51 213 27 114 77 321 110 458 33 138 62 256 64 263 3 9 44 12 159
12 120 0 154 -3 151 -12z m315 3 c0 -6 -29 -128 -64 -273 -35 -145 -86 -354
-112 -465 l-48 -203 -69 0 c-60 0 -68 2 -63 18 3 9 53 215 111 457 58 242 108
448 111 458 4 14 17 17 70 17 35 0 64 -4 64 -9z"/>
</g>
</svg>
