<svg width="32" height="32" viewBox="0 0 32 32" fill="none" xmlns="http://www.w3.org/2000/svg">
<path d="M18.6667 2.66675H8C7.29276 2.66675 6.61448 2.9477 6.11438 3.4478C5.61429 3.94789 5.33334 4.62617 5.33334 5.33341V26.6667C5.33334 27.374 5.61429 28.0523 6.11438 28.5524C6.61448 29.0525 7.29276 29.3334 8 29.3334H24C24.7072 29.3334 25.3855 29.0525 25.8856 28.5524C26.3857 28.0523 26.6667 27.374 26.6667 26.6667V10.6667L18.6667 2.66675Z" stroke="white" stroke-width="2.5" stroke-linecap="round" stroke-linejoin="round"/>
<path d="M18.6667 2.66675V10.6667H26.6667" stroke="white" stroke-width="2.5" stroke-linecap="round" stroke-linejoin="round"/>
<path d="M21.3333 17.3333H10.6667" stroke="white" stroke-width="2.5" stroke-linecap="round" stroke-linejoin="round"/>
<path d="M21.3333 22.6667H10.6667" stroke="white" stroke-width="2.5" stroke-linecap="round" stroke-linejoin="round"/>
<path d="M13.3333 12H12H10.6667" stroke="white" stroke-width="2.5" stroke-linecap="round" stroke-linejoin="round"/>
</svg>
