<svg width="32" height="32" viewBox="0 0 32 32" fill="none" xmlns="http://www.w3.org/2000/svg">
<path fill-rule="evenodd" clip-rule="evenodd" d="M4 24H1.33333C0.597333 24 0 23.4027 0 22.6667V5.33333C0 4.59733 0.597333 4 1.33333 4H18.6667C19.4027 4 20 4.59733 20 5.33333V8H26.2227C27.712 8 28.356 8.768 28.804 9.476C29.596 10.7293 30.852 12.7187 31.616 13.98C31.8667 14.396 32 14.8733 32 15.36V21.3333C32 22.7853 31.0093 24 29.3333 24H28C28 26.208 26.208 28 24 28C21.792 28 20 26.208 20 24H12C12 26.208 10.208 28 8 28C5.792 28 4 26.208 4 24ZM8 22.4C8.88267 22.4 9.6 23.1173 9.6 24C9.6 24.8827 8.88267 25.6 8 25.6C7.11733 25.6 6.4 24.8827 6.4 24C6.4 23.1173 7.11733 22.4 8 22.4ZM24 22.4C24.8827 22.4 25.6 23.1173 25.6 24C25.6 24.8827 24.8827 25.6 24 25.6C23.1173 25.6 22.4 24.8827 22.4 24C22.4 23.1173 23.1173 22.4 24 22.4ZM20 18.6667H2.66667V21.3333H5.02C5.752 20.5147 6.816 20 8 20C9.184 20 10.248 20.5147 10.98 21.3333H21.02C21.752 20.5147 22.816 20 24 20C25.184 20 26.248 20.5147 26.98 21.3333H29.3333V15.2333L27.052 11.328C26.8133 10.9187 26.3747 10.6667 25.9013 10.6667H20V18.6667ZM17.3333 6.66667H2.66667V16H17.3333V6.66667ZM21.3333 12V16H28L26.0973 12.672C25.86 12.256 25.4187 12 24.94 12H21.3333Z" fill="white"/>
</svg>
