<svg width="55" height="54" viewBox="0 0 55 54" fill="none" xmlns="http://www.w3.org/2000/svg">
<path d="M23.5668 33.0667L17.0335 26.5334C16.6335 26.1334 16.1446 25.9334 15.5668 25.9334C14.9891 25.9334 14.4779 26.1556 14.0335 26.6C13.5891 27.0445 13.3668 27.5556 13.3668 28.1334C13.3668 28.7112 13.5891 29.2 14.0335 29.6L22.1668 37.7334C22.5668 38.1334 23.0335 38.3334 23.5668 38.3334C24.1002 38.3334 24.5668 38.1334 24.9668 37.7334L40.9668 21.7334C41.3668 21.3334 41.5557 20.8445 41.5335 20.2667C41.5113 19.6889 41.3002 19.2 40.9002 18.8C40.5002 18.3556 40.0002 18.1334 39.4002 18.1334C38.8002 18.1334 38.2779 18.3556 37.8335 18.8L23.5668 33.0667ZM27.5002 53.6667C23.7224 53.6667 20.2113 52.9889 16.9668 51.6334C13.7224 50.2778 10.9002 48.4 8.50016 46C6.10016 43.6 4.22238 40.7778 2.86683 37.5334C1.51127 34.2889 0.833496 30.7778 0.833496 27C0.833496 23.2667 1.51127 19.7778 2.86683 16.5334C4.22238 13.2889 6.10016 10.4667 8.50016 8.06671C10.9002 5.66671 13.7224 3.77782 16.9668 2.40004C20.2113 1.02226 23.7224 0.333374 27.5002 0.333374C31.2335 0.333374 34.7224 1.02226 37.9668 2.40004C41.2113 3.77782 44.0335 5.66671 46.4335 8.06671C48.8335 10.4667 50.7224 13.2889 52.1002 16.5334C53.4779 19.7778 54.1668 23.2667 54.1668 27C54.1668 30.7778 53.4779 34.2889 52.1002 37.5334C50.7224 40.7778 48.8335 43.6 46.4335 46C44.0335 48.4 41.2113 50.2778 37.9668 51.6334C34.7224 52.9889 31.2335 53.6667 27.5002 53.6667ZM27.5002 49.6667C33.9446 49.6667 39.3335 47.5 43.6668 43.1667C48.0002 38.8334 50.1668 33.4445 50.1668 27C50.1668 20.5556 48.0002 15.1667 43.6668 10.8334C39.3335 6.50004 33.9446 4.33337 27.5002 4.33337C21.0557 4.33337 15.6668 6.50004 11.3335 10.8334C7.00016 15.1667 4.8335 20.5556 4.8335 27C4.8335 33.4445 7.00016 38.8334 11.3335 43.1667C15.6668 47.5 21.0557 49.6667 27.5002 49.6667Z" fill="#42D210"/>
</svg>
